<svg xmlns="http://www.w3.org/2000/svg" xmlns:xlink="http://www.w3.org/1999/xlink" width="500" zoomAndPan="magnify" viewBox="0 0 375 374.999991" height="500" preserveAspectRatio="xMidYMid meet" version="1.0"><defs><clipPath id="7eb1ad4a7f"><path d="M 87.832031 35.226562 L 287.332031 35.226562 L 287.332031 339.726562 L 87.832031 339.726562 Z M 87.832031 35.226562 " clip-rule="nonzero"/></clipPath></defs><rect x="-37.5" width="450" fill="#ffffff" y="-37.499999" height="449.999989" fill-opacity="1"/><rect x="-37.5" width="450" fill="#ffffff" y="-37.499999" height="449.999989" fill-opacity="1"/><rect x="-37.5" width="450" fill="#000000" y="-37.499999" height="449.999989" fill-opacity="1"/><g clip-path="url(#7eb1ad4a7f)"><path fill="#ff951f" d="M 110.917969 158.085938 L 87.832031 135.023438 L 187.570312 35.375 L 287.3125 135.023438 L 264.210938 158.105469 L 259.660156 153.558594 L 278.210938 135.023438 L 187.570312 44.46875 L 96.933594 135.023438 L 115.46875 153.539062 Z M 256.460938 174.929688 L 287.3125 205.757812 L 190.789062 302.1875 L 190.789062 339.597656 L 184.355469 339.597656 L 184.355469 302.1875 L 87.832031 205.757812 L 123.234375 170.394531 L 123.226562 170.386719 L 127.777344 165.839844 L 127.785156 165.847656 L 187.570312 106.117188 L 244.15625 162.652344 Z M 184.355469 231.457031 L 127.785156 174.941406 L 96.933594 205.757812 L 184.355469 293.09375 Z M 242.808594 170.394531 L 187.570312 115.210938 L 132.335938 170.394531 L 187.570312 225.578125 Z M 278.210938 205.757812 L 247.359375 174.929688 L 190.789062 231.445312 L 190.789062 293.085938 Z M 278.210938 205.757812 " fill-opacity="1" fill-rule="nonzero"/></g></svg>